<svg id="svg" version="1.1" xmlns="http://www.w3.org/2000/svg" xmlns:xlink="http://www.w3.org/1999/xlink" width="400" height="400" viewBox="0, 0, 400,400"><g id="svgg"><path id="path0" d="M99.012 74.045 C 77.775 77.139,66.640 102.494,78.712 120.270 C 91.514 139.123,119.658 137.687,130.142 117.646 C 141.582 95.776,123.519 70.476,99.012 74.045 M249.600 158.420 C 231.131 160.715,213.797 170.046,206.614 181.557 C 204.956 184.215,204.813 183.390,204.806 171.100 L 204.800 160.000 182.400 160.000 L 160.000 160.000 160.000 240.000 L 160.000 320.000 183.985 320.000 L 207.970 320.000 208.104 276.500 C 208.255 227.801,208.087 230.742,211.238 221.720 C 216.017 208.034,226.217 200.733,241.400 200.128 C 256.736 199.516,266.160 207.344,270.426 224.238 C 272.251 231.463,272.400 235.630,272.400 279.458 L 272.400 320.000 296.218 320.000 L 320.036 320.000 319.883 267.300 C 319.723 211.947,319.760 213.112,317.806 202.349 C 313.136 176.624,299.192 162.823,274.000 158.993 C 269.010 158.235,253.942 157.881,249.600 158.420 M79.600 240.000 L 79.600 320.000 103.600 320.000 L 127.600 320.000 127.600 240.000 L 127.600 160.000 103.600 160.000 L 79.600 160.000 79.600 240.000 " stroke="none" fill="#f9fafb" fill-rule="evenodd"></path><path id="path1" d="M53.297 31.239 C 42.119 32.549,32.460 42.154,31.194 53.218 C 30.319 60.870,30.857 348.475,31.752 351.600 C 34.334 360.612,39.521 366.223,47.070 368.169 C 49.311 368.747,63.277 368.797,197.670 368.703 L 345.800 368.600 348.576 367.660 C 357.090 364.779,363.707 359.203,367.161 352.000 L 368.600 349.000 368.703 200.620 C 368.817 35.923,369.057 50.523,366.127 44.413 C 363.359 38.639,356.890 33.473,350.000 31.533 C 347.877 30.935,58.338 30.648,53.297 31.239 M111.585 74.415 C 134.303 80.770,141.621 109.152,124.748 125.463 C 105.525 144.046,73.343 130.330,73.450 103.600 C 73.531 83.528,92.437 69.059,111.585 74.415 M269.400 158.006 C 301.905 161.612,316.248 177.687,320.075 214.800 C 320.466 218.594,320.591 231.953,320.595 270.200 L 320.600 320.600 296.308 320.703 L 272.017 320.806 271.806 319.903 C 271.689 319.406,271.544 299.020,271.481 274.600 L 271.368 230.200 270.465 226.246 C 266.160 207.405,255.653 198.632,239.480 200.373 C 223.082 202.138,213.287 211.506,209.325 229.211 C 208.730 231.869,208.631 237.094,208.428 276.400 L 208.200 320.600 183.900 320.703 L 159.600 320.806 159.600 240.203 L 159.600 159.600 182.594 159.600 L 205.588 159.600 205.694 170.849 L 205.800 182.098 207.354 179.842 C 217.883 164.551,244.371 155.229,269.400 158.006 M128.000 240.203 L 128.000 320.806 103.700 320.703 L 79.400 320.600 79.299 240.100 L 79.198 159.600 103.599 159.600 L 128.000 159.600 128.000 240.203 " stroke="none" fill="#0474b3" fill-rule="evenodd"></path><path id="path2" d="M102.900 73.476 C 103.285 73.576,103.915 73.576,104.300 73.476 C 104.685 73.375,104.370 73.293,103.600 73.293 C 102.830 73.293,102.515 73.375,102.900 73.476 M73.293 103.600 C 73.293 104.370,73.375 104.685,73.476 104.300 C 73.576 103.915,73.576 103.285,73.476 102.900 C 73.375 102.515,73.293 102.830,73.293 103.600 M253.105 157.883 C 253.602 157.979,254.322 157.975,254.705 157.875 C 255.087 157.775,254.680 157.696,253.800 157.701 C 252.920 157.705,252.607 157.787,253.105 157.883 M263.305 157.887 C 263.914 157.979,264.814 157.977,265.305 157.882 C 265.797 157.787,265.300 157.711,264.200 157.714 C 263.100 157.717,262.697 157.795,263.305 157.887 M211.200 175.400 C 210.228 176.390,209.523 177.200,209.633 177.200 C 209.743 177.200,210.628 176.390,211.600 175.400 C 212.572 174.410,213.277 173.600,213.167 173.600 C 213.057 173.600,212.172 174.410,211.200 175.400 M319.693 215.200 C 319.693 215.970,319.775 216.285,319.876 215.900 C 319.976 215.515,319.976 214.885,319.876 214.500 C 319.775 214.115,319.693 214.430,319.693 215.200 M320.120 221.600 C 320.120 222.810,320.195 223.305,320.287 222.700 C 320.378 222.095,320.378 221.105,320.287 220.500 C 320.195 219.895,320.120 220.390,320.120 221.600 " stroke="none" fill="#60a8cd" fill-rule="evenodd"></path><path id="path3" d="M82.181 82.500 L 80.600 84.200 82.300 82.619 C 83.235 81.749,84.000 80.984,84.000 80.919 C 84.000 80.616,83.652 80.919,82.181 82.500 M133.714 103.800 C 133.717 104.900,133.795 105.303,133.887 104.695 C 133.979 104.086,133.977 103.186,133.882 102.695 C 133.787 102.203,133.711 102.700,133.714 103.800 M124.778 125.100 L 123.400 126.600 124.900 125.222 C 126.296 123.938,126.584 123.600,126.278 123.600 C 126.212 123.600,125.537 124.275,124.778 125.100 M102.500 133.887 C 103.105 133.978,104.095 133.978,104.700 133.887 C 105.305 133.795,104.810 133.720,103.600 133.720 C 102.390 133.720,101.895 133.795,102.500 133.887 M256.900 157.894 C 257.945 157.976,259.655 157.976,260.700 157.894 C 261.745 157.812,260.890 157.744,258.800 157.744 C 256.710 157.744,255.855 157.812,256.900 157.894 M250.500 158.276 C 250.885 158.376,251.515 158.376,251.900 158.276 C 252.285 158.175,251.970 158.093,251.200 158.093 C 250.430 158.093,250.115 158.175,250.500 158.276 M266.705 158.283 C 267.202 158.379,267.922 158.375,268.305 158.275 C 268.687 158.175,268.280 158.096,267.400 158.101 C 266.520 158.105,266.207 158.187,266.705 158.283 M103.700 159.898 L 127.600 160.006 127.600 240.000 L 127.600 319.994 103.700 320.102 L 79.800 320.209 103.800 320.205 L 127.800 320.200 127.800 240.000 L 127.800 159.800 103.800 159.795 L 79.800 159.791 103.700 159.898 M159.786 160.097 C 159.681 160.373,159.641 196.510,159.697 240.400 L 159.800 320.200 184.000 320.205 L 208.200 320.210 184.100 320.102 L 160.000 319.994 160.000 239.997 L 160.000 160.000 182.394 160.000 L 204.788 160.000 204.903 171.100 L 205.019 182.200 205.009 171.000 L 205.000 159.800 182.489 159.697 C 164.692 159.615,159.937 159.699,159.786 160.097 M261.183 206.900 C 262.164 207.945,263.019 208.800,263.083 208.800 C 263.384 208.800,263.066 208.441,261.300 206.783 L 259.400 205.000 261.183 206.900 M218.975 208.900 L 217.800 210.200 219.100 209.025 C 219.815 208.379,220.400 207.794,220.400 207.725 C 220.400 207.416,220.070 207.688,218.975 208.900 M319.293 212.400 C 319.293 213.170,319.375 213.485,319.476 213.100 C 319.576 212.715,319.576 212.085,319.476 211.700 C 319.375 211.315,319.293 211.630,319.293 212.400 M319.701 217.800 C 319.705 218.680,319.787 218.993,319.883 218.495 C 319.979 217.998,319.975 217.278,319.875 216.895 C 319.775 216.513,319.696 216.920,319.701 217.800 M320.000 271.800 L 320.000 320.000 296.202 320.000 L 272.404 320.000 272.300 278.300 L 272.196 236.600 272.098 278.500 L 272.000 320.400 296.200 320.400 L 320.400 320.400 320.400 272.000 C 320.400 245.380,320.310 223.600,320.200 223.600 C 320.090 223.600,320.000 245.290,320.000 271.800 M271.693 232.400 C 271.693 233.170,271.775 233.485,271.876 233.100 C 271.976 232.715,271.976 232.085,271.876 231.700 C 271.775 231.315,271.693 231.630,271.693 232.400 " stroke="none" fill="#87bcdc" fill-rule="evenodd"></path><path id="path4" d="M81.978 82.300 L 80.600 83.800 82.100 82.422 C 83.496 81.138,83.784 80.800,83.478 80.800 C 83.412 80.800,82.737 81.475,81.978 82.300 M79.399 240.100 L 79.400 320.600 103.800 320.605 L 128.200 320.609 103.901 320.502 L 79.602 320.394 79.500 239.997 L 79.397 159.600 79.399 240.100 M205.200 171.200 C 205.200 177.653,205.301 182.833,205.424 182.709 C 205.693 182.440,205.658 159.925,205.388 159.655 C 205.285 159.551,205.200 164.747,205.200 171.200 M303.600 172.200 C 305.017 173.630,306.267 174.800,306.377 174.800 C 306.487 174.800,305.417 173.630,304.000 172.200 C 302.583 170.770,301.333 169.600,301.223 169.600 C 301.113 169.600,302.183 170.770,303.600 172.200 M259.200 205.325 C 259.200 205.394,259.785 205.979,260.500 206.625 L 261.800 207.800 260.625 206.500 C 259.530 205.288,259.200 205.016,259.200 205.325 M320.101 218.200 C 320.105 219.080,320.187 219.393,320.283 218.895 C 320.379 218.398,320.375 217.678,320.275 217.295 C 320.175 216.913,320.096 217.320,320.101 218.200 M320.498 273.897 L 320.400 320.394 296.100 320.500 L 271.800 320.606 296.113 320.703 C 315.266 320.779,320.466 320.694,320.616 320.300 C 320.720 320.025,320.759 299.010,320.701 273.600 L 320.597 227.400 320.498 273.897 M271.793 277.600 C 271.793 301.030,271.841 310.615,271.900 298.900 C 271.959 287.185,271.959 268.015,271.900 256.300 C 271.841 244.585,271.793 254.170,271.793 277.600 M208.098 279.697 L 208.000 320.394 183.700 320.500 L 159.400 320.606 183.713 320.703 C 202.866 320.779,208.066 320.694,208.216 320.300 C 208.320 320.025,208.359 301.620,208.301 279.400 L 208.196 239.000 208.098 279.697 " stroke="none" fill="#318cbc" fill-rule="evenodd"></path></g></svg>