<svg id="svg" version="1.1" xmlns="http://www.w3.org/2000/svg" xmlns:xlink="http://www.w3.org/1999/xlink" width="400" height="400" viewBox="0, 0, 400,400"><g id="svgg"><path id="path0" d="M118.750 73.648 C 107.095 76.903,103.278 91.225,111.798 99.738 C 120.764 108.698,136.565 103.546,138.194 91.131 C 139.672 79.867,129.437 70.664,118.750 73.648 M110.938 207.422 L 110.938 291.016 122.852 291.016 L 134.766 291.016 134.766 207.422 L 134.766 123.828 122.852 123.828 L 110.938 123.828 110.938 207.422 M170.313 207.426 L 170.313 291.058 207.910 290.908 C 246.904 290.753,246.526 290.768,255.469 289.006 C 304.126 279.420,333.397 233.544,321.319 185.800 C 313.625 155.386,290.779 133.225,260.097 126.416 C 249.176 123.993,250.908 124.077,208.887 123.929 L 170.313 123.793 170.313 207.426 M243.043 145.892 C 272.498 149.337,292.243 165.901,297.999 191.992 C 304.375 220.894,291.280 250.256,266.657 262.268 C 253.926 268.479,246.531 269.521,215.137 269.527 L 194.141 269.531 194.141 207.422 L 194.141 145.313 216.116 145.313 C 233.051 145.313,239.227 145.445,243.043 145.892 " stroke="none" fill="#fbfbfb" fill-rule="evenodd"></path><path id="path1" d="M182.227 0.593 C 72.111 10.674,-9.098 107.568,0.584 217.321 C 10.239 326.762,105.910 407.997,215.254 399.596 C 331.038 390.701,414.838 285.695,398.028 170.570 C 382.787 66.194,287.289 -9.025,182.227 0.593 M127.344 73.524 C 136.559 76.285,141.326 87.002,137.130 95.526 C 129.497 111.030,106.376 105.301,107.106 88.086 C 107.549 77.651,117.417 70.551,127.344 73.524 M135.156 207.227 L 135.156 291.016 122.852 291.016 L 110.547 291.016 110.547 207.227 L 110.547 123.438 122.852 123.438 L 135.156 123.438 135.156 207.227 M245.117 123.856 C 281.265 127.022,308.008 146.486,319.164 177.749 C 335.843 224.491,310.450 274.163,263.086 287.446 C 250.068 291.096,248.340 291.211,206.250 291.211 L 170.117 291.211 170.019 207.324 L 169.920 123.438 205.175 123.442 C 226.549 123.444,242.275 123.607,245.117 123.856 M194.531 207.182 L 194.531 269.141 216.506 269.141 C 243.823 269.141,248.081 268.743,258.984 265.175 C 284.011 256.987,299.887 233.142,299.119 204.899 C 298.300 174.805,280.522 153.559,251.066 147.471 C 243.010 145.806,240.399 145.649,217.090 145.433 L 194.531 145.223 194.531 207.182 " stroke="none" fill="#a4cc34" fill-rule="evenodd"></path><path id="path2" d="M116.919 123.730 C 120.316 123.795,125.765 123.795,129.028 123.730 C 132.291 123.664,129.512 123.611,122.852 123.611 C 116.191 123.611,113.522 123.665,116.919 123.730 M187.207 123.730 C 196.606 123.789,211.987 123.789,221.387 123.730 C 230.786 123.672,223.096 123.624,204.297 123.624 C 185.498 123.624,177.808 123.672,187.207 123.730 M280.249 252.832 L 279.102 254.102 280.371 252.954 C 281.554 251.885,281.820 251.563,281.518 251.563 C 281.451 251.563,280.880 252.134,280.249 252.832 M235.844 269.417 C 236.330 269.510,237.033 269.507,237.407 269.409 C 237.780 269.311,237.383 269.235,236.523 269.239 C 235.664 269.243,235.358 269.323,235.844 269.417 " stroke="none" fill="#dcecb2" fill-rule="evenodd"></path><path id="path3" d="M238.770 123.707 C 239.146 123.805,239.761 123.805,240.137 123.707 C 240.513 123.609,240.205 123.528,239.453 123.528 C 238.701 123.528,238.394 123.609,238.770 123.707 M110.739 207.422 C 110.739 253.506,110.784 272.358,110.840 249.316 C 110.895 226.274,110.895 188.569,110.840 165.527 C 110.784 142.485,110.739 161.338,110.739 207.422 M170.114 207.422 C 170.114 253.506,170.159 272.358,170.215 249.316 C 170.270 226.274,170.270 188.569,170.215 165.527 C 170.159 142.485,170.114 161.338,170.114 207.422 M282.406 163.379 C 283.363 164.399,284.198 165.234,284.261 165.234 C 284.554 165.234,284.244 164.884,282.520 163.265 L 280.664 161.523 282.406 163.379 M299.309 204.688 C 299.309 205.439,299.390 205.747,299.488 205.371 C 299.586 204.995,299.586 204.380,299.488 204.004 C 299.390 203.628,299.309 203.936,299.309 204.688 M204.590 269.433 C 210.229 269.494,219.458 269.494,225.098 269.433 C 230.737 269.372,226.123 269.322,214.844 269.322 C 203.564 269.322,198.950 269.372,204.590 269.433 " stroke="none" fill="#c7e080" fill-rule="evenodd"></path><path id="path4" d="M134.957 207.227 C 134.957 253.418,135.003 272.372,135.059 249.348 C 135.114 226.323,135.114 188.530,135.059 165.363 C 135.003 142.197,134.957 161.035,134.957 207.227 M194.331 207.227 C 194.331 241.387,194.377 255.304,194.434 238.153 C 194.490 221.002,194.490 193.053,194.434 176.043 C 194.377 159.034,194.331 173.066,194.331 207.227 M233.891 145.589 C 234.377 145.682,235.080 145.679,235.454 145.581 C 235.827 145.483,235.430 145.407,234.570 145.411 C 233.711 145.415,233.405 145.495,233.891 145.589 M299.325 207.422 C 299.325 208.389,299.401 208.784,299.494 208.301 C 299.588 207.817,299.588 207.026,299.494 206.543 C 299.401 206.060,299.325 206.455,299.325 207.422 M299.979 265.918 L 298.633 267.383 300.098 266.037 C 301.461 264.784,301.742 264.453,301.444 264.453 C 301.379 264.453,300.719 265.112,299.979 265.918 M187.207 291.308 C 196.606 291.367,211.987 291.367,221.387 291.308 C 230.786 291.250,223.096 291.203,204.297 291.203 C 185.498 291.203,177.808 291.250,187.207 291.308 " stroke="none" fill="#bcdc63" fill-rule="evenodd"></path></g></svg>