<svg id="svg" version="1.1" xmlns="http://www.w3.org/2000/svg" xmlns:xlink="http://www.w3.org/1999/xlink" width="400" height="400" viewBox="0, 0, 400,400"><g id="svgg"><path id="path0" d="M308.500 59.172 C 277.714 59.798,254.449 66.313,240.077 78.333 C 226.377 89.792,215.979 111.949,212.019 138.125 C 210.624 147.343,210.242 153.457,210.077 169.188 L 209.934 182.750 188.466 182.750 L 166.998 182.750 167.061 211.563 L 167.125 240.375 188.563 240.439 L 210.000 240.503 210.000 320.251 L 210.000 400.000 241.375 400.000 L 272.750 400.000 272.750 320.251 L 272.750 240.502 304.813 240.438 L 336.875 240.375 336.939 211.563 L 337.002 182.750 305.016 182.750 C 287.423 182.750,272.979 182.666,272.917 182.563 C 272.444 181.773,273.430 152.592,274.144 146.250 C 276.645 124.020,294.640 114.924,330.625 117.700 C 333.925 117.955,336.709 118.120,336.813 118.067 C 336.916 118.014,337.000 104.883,337.000 88.888 L 337.000 59.805 334.313 59.645 C 331.282 59.465,312.896 58.977,312.125 59.057 C 311.850 59.085,310.219 59.137,308.500 59.172 " stroke="none" fill="#fbfbfb" fill-rule="evenodd"></path><path id="path1" d="M26.875 0.521 C 13.494 3.400,3.240 13.731,0.505 27.090 C -0.293 30.985,-0.293 369.015,0.505 372.910 C 2.450 382.407,8.531 390.931,16.625 395.506 C 18.535 396.586,19.703 397.185,20.412 397.449 C 20.804 397.595,21.879 397.996,22.801 398.340 C 23.723 398.684,25.601 399.198,26.974 399.483 L 29.471 400.000 119.736 400.000 L 210.001 400.000 209.938 320.313 L 209.875 240.625 188.438 240.561 L 167.000 240.497 167.000 211.499 L 167.000 182.500 188.477 182.500 L 209.954 182.500 210.073 167.563 C 210.263 143.729,212.089 130.527,217.359 114.888 C 229.668 78.366,250.657 63.625,296.125 59.571 C 301.556 59.087,326.721 58.985,333.692 59.418 L 337.010 59.625 337.003 88.856 C 336.999 104.933,336.944 118.139,336.881 118.202 C 336.818 118.266,334.990 118.182,332.820 118.016 C 301.158 115.595,284.665 120.693,277.225 135.200 C 274.272 140.956,273.033 153.324,273.006 177.312 L 273.000 182.498 305.002 182.562 L 337.004 182.625 337.004 211.500 L 337.004 240.375 305.002 240.438 L 273.000 240.502 273.000 320.251 L 273.000 400.000 321.764 400.000 C 376.083 400.000,372.457 400.109,377.199 398.340 C 378.121 397.996,379.196 397.595,379.588 397.449 C 380.297 397.185,381.465 396.586,383.375 395.506 C 387.239 393.322,391.471 389.397,394.163 385.500 C 395.325 383.818,396.988 380.826,397.449 379.588 C 397.595 379.196,397.996 378.121,398.340 377.199 C 398.684 376.277,399.198 374.399,399.483 373.026 L 400.000 370.529 400.000 200.000 L 400.000 29.471 399.483 26.974 C 399.198 25.601,398.684 23.723,398.340 22.801 C 397.996 21.879,397.595 20.804,397.449 20.412 C 397.185 19.703,396.586 18.535,395.506 16.625 C 392.945 12.093,387.907 7.055,383.375 4.494 C 381.465 3.414,380.297 2.815,379.588 2.551 C 379.196 2.405,378.121 2.004,377.199 1.660 C 376.277 1.316,374.399 0.802,373.026 0.517 L 370.529 0.000 199.827 0.019 C 31.980 0.037,29.087 0.045,26.875 0.521 " stroke="none" fill="#3b5b94" fill-rule="evenodd"></path><path id="path2" d="M304.816 59.179 C 305.196 59.237,305.758 59.235,306.066 59.176 C 306.373 59.117,306.063 59.070,305.375 59.072 C 304.688 59.073,304.436 59.122,304.816 59.179 M321.942 59.181 C 322.391 59.237,323.066 59.236,323.442 59.179 C 323.818 59.122,323.450 59.076,322.625 59.077 C 321.800 59.079,321.493 59.126,321.942 59.181 M330.438 59.426 C 330.747 59.486,331.253 59.486,331.563 59.426 C 331.872 59.367,331.619 59.318,331.000 59.318 C 330.381 59.318,330.128 59.367,330.438 59.426 M335.750 59.597 C 335.750 59.650,336.082 59.742,336.487 59.801 C 336.892 59.861,337.167 59.817,337.097 59.705 C 336.973 59.504,335.750 59.406,335.750 59.597 M316.194 117.433 C 316.782 117.486,317.682 117.485,318.194 117.432 C 318.706 117.378,318.225 117.335,317.125 117.336 C 316.025 117.337,315.606 117.381,316.194 117.433 M321.313 117.429 C 321.691 117.486,322.309 117.486,322.688 117.429 C 323.066 117.372,322.756 117.325,322.000 117.325 C 321.244 117.325,320.934 117.372,321.313 117.429 M310.563 117.672 C 310.803 117.735,311.197 117.735,311.438 117.672 C 311.678 117.609,311.481 117.558,311.000 117.558 C 310.519 117.558,310.322 117.609,310.563 117.672 M327.063 117.672 C 327.303 117.735,327.697 117.735,327.938 117.672 C 328.178 117.609,327.981 117.558,327.500 117.558 C 327.019 117.558,326.822 117.609,327.063 117.672 M210.063 156.625 C 210.066 157.175,210.117 157.371,210.177 157.060 C 210.237 156.749,210.234 156.299,210.172 156.060 C 210.109 155.821,210.060 156.075,210.063 156.625 M273.084 167.500 C 273.084 168.531,273.128 168.953,273.182 168.438 C 273.236 167.922,273.236 167.078,273.182 166.563 C 273.128 166.047,273.084 166.469,273.084 167.500 " stroke="none" fill="#8796bc" fill-rule="evenodd"></path><path id="path3" d="" stroke="none" fill="#9cacc5" fill-rule="evenodd"></path><path id="path4" d="M308.320 59.184 C 308.977 59.236,309.990 59.235,310.570 59.183 C 311.150 59.130,310.613 59.088,309.375 59.089 C 308.137 59.090,307.663 59.132,308.320 59.184 M317.446 59.185 C 318.172 59.235,319.297 59.235,319.946 59.183 C 320.594 59.132,320.000 59.091,318.625 59.091 C 317.250 59.092,316.719 59.134,317.446 59.185 M301.190 59.427 C 301.501 59.487,301.951 59.484,302.190 59.422 C 302.429 59.359,302.175 59.310,301.625 59.313 C 301.075 59.316,300.879 59.367,301.190 59.427 M327.563 59.429 C 327.941 59.486,328.559 59.486,328.938 59.429 C 329.316 59.372,329.006 59.325,328.250 59.325 C 327.494 59.325,327.184 59.372,327.563 59.429 M236.366 81.563 L 235.125 82.875 236.438 81.634 C 237.657 80.482,237.865 80.250,237.678 80.250 C 237.639 80.250,237.048 80.841,236.366 81.563 M313.066 117.429 C 313.446 117.487,314.008 117.485,314.316 117.426 C 314.623 117.367,314.313 117.320,313.625 117.322 C 312.938 117.323,312.686 117.372,313.066 117.429 M324.188 117.426 C 324.497 117.486,325.003 117.486,325.313 117.426 C 325.622 117.367,325.369 117.318,324.750 117.318 C 324.131 117.318,323.878 117.367,324.188 117.426 M273.558 152.500 C 273.558 152.981,273.609 153.178,273.672 152.938 C 273.735 152.697,273.735 152.303,273.672 152.063 C 273.609 151.822,273.558 152.019,273.558 152.500 M210.313 153.625 C 210.316 154.175,210.367 154.371,210.427 154.060 C 210.487 153.749,210.484 153.299,210.422 153.060 C 210.359 152.821,210.310 153.075,210.313 153.625 M273.308 157.000 C 273.308 157.481,273.359 157.678,273.422 157.438 C 273.485 157.197,273.485 156.803,273.422 156.563 C 273.359 156.322,273.308 156.519,273.308 157.000 M210.075 159.250 C 210.075 160.006,210.122 160.316,210.179 159.938 C 210.236 159.559,210.236 158.941,210.179 158.563 C 210.122 158.184,210.075 158.494,210.075 159.250 M273.068 164.500 C 273.068 165.119,273.117 165.372,273.176 165.063 C 273.236 164.753,273.236 164.247,273.176 163.938 C 273.117 163.628,273.068 163.881,273.068 164.500 M272.858 181.000 L 272.875 182.625 304.938 182.626 L 337.000 182.628 305.011 182.563 L 273.023 182.498 272.932 180.937 L 272.841 179.375 272.858 181.000 M177.956 182.687 C 183.913 182.725,193.588 182.725,199.456 182.687 C 205.324 182.650,200.450 182.620,188.625 182.620 C 176.800 182.620,171.999 182.650,177.956 182.687 M272.873 320.250 C 272.873 364.181,272.902 382.153,272.937 360.187 C 272.973 338.222,272.973 302.278,272.937 280.312 C 272.902 258.347,272.873 276.319,272.873 320.250 " stroke="none" fill="#a4accc" fill-rule="evenodd"></path></g></svg>